<?xml version="1.0" encoding="utf-8"?>
<svg viewBox="0 0 24 24" xmlns="http://www.w3.org/2000/svg">
  <path d="M 4 10.019 L 6 10.019 L 8 10.019 L 8 7.019 L 8 3.019 C 8 2.466 8.447 2.019 9 2.019 L 15 2.019 C 15.553 2.019 16 2.466 16 3.019 L 16 8.019 L 16 10.019 L 17 10.019 L 20 10.019 C 20.385 10.019 20.734 10.24 20.901 10.585 C 21.067 10.932 21.021 11.343 20.781 11.644 L 12.781 21.644 C 12.4 22.119 11.6 22.119 11.219 21.644 L 3.219 11.644 C 2.979 11.343 2.933 10.932 3.099 10.585 C 3.266 10.24 3.615 10.019 4 10.019 L 4 10.019 Z" style="fill: rgb(242, 95, 92);"/>
</svg>